<svg width="283" height="39" viewBox="0 0 283 39" fill="none" xmlns="http://www.w3.org/2000/svg">
<path d="M0.726562 4.01731C1.52656 4.04931 2.55056 4.08131 3.79856 4.11331C5.04656 4.14531 6.29456 4.16131 7.54256 4.16131C9.11056 4.16131 10.5986 4.14531 12.0066 4.11331C13.4146 4.08131 14.4066 4.06531 14.9826 4.06531C18.7586 4.06531 21.5746 4.76931 23.4306 6.17731C25.3186 7.58531 26.2626 9.39331 26.2626 11.6013C26.2626 12.7213 25.9586 13.8413 25.3506 14.9613C24.7746 16.0813 23.8306 17.0893 22.5186 17.9853C21.2386 18.8813 19.5586 19.5533 17.4786 20.0013V20.0973C20.2946 20.3533 22.5186 20.9293 24.1506 21.8253C25.8146 22.6893 26.9986 23.7293 27.7026 24.9453C28.4066 26.1293 28.7586 27.3773 28.7586 28.6893C28.7586 30.6413 28.2466 32.3213 27.2226 33.7293C26.2306 35.1053 24.7906 36.1613 22.9026 36.8973C21.0146 37.6333 18.7426 38.0013 16.0866 38.0013C15.3826 38.0013 14.3106 37.9853 12.8706 37.9533C11.4306 37.8893 9.68656 37.8573 7.63856 37.8573C6.32656 37.8573 5.04656 37.8733 3.79856 37.9053C2.55056 37.9053 1.52656 37.9373 0.726562 38.0013V37.0413C1.78256 36.9773 2.56656 36.8493 3.07856 36.6573C3.62256 36.4653 3.97456 36.0813 4.13456 35.5053C4.32656 34.9293 4.42256 34.0653 4.42256 32.9133V9.10531C4.42256 7.92131 4.32656 7.05731 4.13456 6.51331C3.97456 5.93731 3.62256 5.55331 3.07856 5.36131C2.56656 5.13731 1.78256 5.00931 0.726562 4.97731V4.01731ZM14.1666 4.97731C12.8546 4.97731 11.9906 5.24931 11.5746 5.79331C11.1906 6.33731 10.9986 7.44131 10.9986 9.10531V32.9133C10.9986 34.0333 11.0946 34.8813 11.2866 35.4573C11.4786 36.0333 11.8146 36.4173 12.2946 36.6093C12.7746 36.8013 13.4786 36.8973 14.4066 36.8973C17.0306 36.8973 18.9186 36.1773 20.0706 34.7373C21.2546 33.2653 21.8466 31.1853 21.8466 28.4973C21.8466 26.0333 21.2066 24.1293 19.9266 22.7853C18.6786 21.4413 16.5986 20.7693 13.6866 20.7693H9.31856C9.31856 20.7693 9.31856 20.6413 9.31856 20.3853C9.31856 20.0973 9.31856 19.9533 9.31856 19.9533H13.4466C15.0786 19.9533 16.3426 19.6013 17.2386 18.8973C18.1346 18.1613 18.7426 17.2013 19.0626 16.0173C19.3826 14.8013 19.5426 13.5053 19.5426 12.1293C19.5426 9.76131 19.1266 7.98531 18.2946 6.80131C17.4626 5.58531 16.0866 4.97731 14.1666 4.97731Z" fill="#141414"/>
<path d="M36.9831 0.945312C38.1351 0.945312 39.0791 1.26531 39.8151 1.90531C40.5511 2.54531 40.9191 3.39331 40.9191 4.44931C40.9191 5.50531 40.5511 6.35331 39.8151 6.99331C39.0791 7.63331 38.1351 7.95331 36.9831 7.95331C35.8311 7.95331 34.8871 7.63331 34.1511 6.99331C33.4151 6.35331 33.0471 5.50531 33.0471 4.44931C33.0471 3.39331 33.4151 2.54531 34.1511 1.90531C34.8871 1.26531 35.8311 0.945312 36.9831 0.945312ZM40.3431 12.6573V33.5373C40.3431 34.8813 40.5831 35.7933 41.0631 36.2733C41.5751 36.7533 42.4231 36.9933 43.6071 36.9933V38.0013C43.0311 37.9693 42.1511 37.9373 40.9671 37.9053C39.7831 37.8413 38.5831 37.8093 37.3671 37.8093C36.1831 37.8093 34.9831 37.8413 33.7671 37.9053C32.5511 37.9373 31.6391 37.9693 31.0311 38.0013V36.9933C32.2151 36.9933 33.0471 36.7533 33.5271 36.2733C34.0391 35.7933 34.2951 34.8813 34.2951 33.5373V18.4653C34.2951 16.9933 34.0551 15.9213 33.5751 15.2493C33.1271 14.5453 32.2791 14.1933 31.0311 14.1933V13.1853C32.0551 13.2813 33.0471 13.3293 34.0071 13.3293C35.1911 13.3293 36.3111 13.2813 37.3671 13.1853C38.4551 13.0573 39.4471 12.8813 40.3431 12.6573Z" fill="#141414"/>
<path d="M51.9407 38.3373C50.5647 38.3373 49.3967 38.0813 48.4367 37.5693C47.4767 37.0253 46.7567 36.3053 46.2767 35.4093C45.7967 34.4813 45.5567 33.4573 45.5567 32.3373C45.5567 30.9613 45.8767 29.8413 46.5167 28.9773C47.1567 28.0813 47.9727 27.3773 48.9647 26.8653C49.9887 26.3213 51.0607 25.8733 52.1807 25.5213C53.3007 25.1373 54.3567 24.7853 55.3487 24.4653C56.3407 24.1133 57.1567 23.7133 57.7967 23.2653C58.4367 22.8173 58.7567 22.2253 58.7567 21.4893V17.9853C58.7567 16.9613 58.5967 16.1293 58.2767 15.4893C57.9887 14.8173 57.5407 14.3213 56.9327 14.0013C56.3567 13.6493 55.6207 13.4733 54.7247 13.4733C54.0527 13.4733 53.3487 13.5693 52.6127 13.7613C51.8767 13.9533 51.2687 14.3213 50.7887 14.8653C51.6207 15.0893 52.2607 15.5053 52.7087 16.1133C53.1887 16.7213 53.4287 17.4573 53.4287 18.3213C53.4287 19.3133 53.0927 20.0973 52.4207 20.6733C51.7807 21.2173 50.9647 21.4893 49.9727 21.4893C48.9167 21.4893 48.1167 21.1533 47.5727 20.4813C47.0287 19.8093 46.7567 19.0253 46.7567 18.1293C46.7567 17.2333 46.9807 16.4973 47.4287 15.9213C47.8767 15.3133 48.5007 14.7693 49.3007 14.2893C50.1007 13.7453 51.1247 13.3133 52.3727 12.9933C53.6207 12.6733 54.9807 12.5133 56.4527 12.5133C57.8607 12.5133 59.1087 12.6733 60.1967 12.9933C61.2847 13.2813 62.2127 13.8093 62.9807 14.5773C63.7487 15.3133 64.2447 16.2253 64.4687 17.3133C64.6927 18.4013 64.8047 19.7293 64.8047 21.2973V34.4493C64.8047 35.2493 64.9007 35.8253 65.0927 36.1773C65.2847 36.4973 65.5887 36.6573 66.0047 36.6573C66.3247 36.6573 66.6287 36.5773 66.9167 36.4173C67.2047 36.2573 67.5247 36.0333 67.8767 35.7453L68.4047 36.5613C67.7007 37.1053 66.9647 37.5373 66.1967 37.8573C65.4287 38.1773 64.5007 38.3373 63.4127 38.3373C62.2927 38.3373 61.3967 38.1773 60.7247 37.8573C60.0847 37.5373 59.6047 37.0733 59.2847 36.4653C58.9967 35.8573 58.8367 35.1373 58.8047 34.3053C58.0367 35.5853 57.0927 36.5773 55.9727 37.2813C54.8527 37.9853 53.5087 38.3373 51.9407 38.3373ZM54.8207 35.6493C55.5887 35.6493 56.2927 35.4413 56.9327 35.0253C57.6047 34.6093 58.2127 33.9853 58.7567 33.1533V23.4573C58.4367 23.9373 57.9727 24.3693 57.3647 24.7533C56.7887 25.1373 56.1647 25.5213 55.4927 25.9053C54.8207 26.2893 54.1807 26.7373 53.5727 27.2493C52.9967 27.7293 52.5007 28.3373 52.0847 29.0733C51.7007 29.7773 51.5087 30.6893 51.5087 31.8093C51.5087 33.0573 51.8127 34.0173 52.4207 34.6893C53.0287 35.3293 53.8287 35.6493 54.8207 35.6493Z" fill="#141414"/>
<path d="M86.4883 12.5133C87.8323 12.5133 88.9043 12.6893 89.7043 13.0413C90.5363 13.3933 91.2083 13.8413 91.7203 14.3853C92.2963 14.9933 92.6963 15.7773 92.9203 16.7373C93.1763 17.6973 93.3043 18.9933 93.3043 20.6253V33.5373C93.3043 34.8813 93.5443 35.7933 94.0243 36.2733C94.5363 36.7533 95.3843 36.9933 96.5683 36.9933V38.0013C95.9923 37.9693 95.0963 37.9373 93.8803 37.9053C92.6963 37.8413 91.5443 37.8093 90.4243 37.8093C89.2403 37.8093 88.0883 37.8413 86.9683 37.9053C85.8483 37.9373 85.0163 37.9693 84.4723 38.0013V36.9933C85.4963 36.9933 86.2163 36.7533 86.6323 36.2733C87.0483 35.7933 87.2563 34.8813 87.2563 33.5373V18.9933C87.2563 18.1293 87.1763 17.3613 87.0163 16.6893C86.8563 15.9853 86.5363 15.4413 86.0563 15.0573C85.5763 14.6413 84.8883 14.4333 83.9923 14.4333C82.9363 14.4333 81.9923 14.7213 81.1603 15.2973C80.3603 15.8733 79.7203 16.6733 79.2403 17.6973C78.7923 18.6893 78.5683 19.8093 78.5683 21.0573V33.5373C78.5683 34.8813 78.7763 35.7933 79.1923 36.2733C79.6083 36.7533 80.3283 36.9933 81.3523 36.9933V38.0013C80.8083 37.9693 79.9923 37.9373 78.9043 37.9053C77.8163 37.8413 76.7123 37.8093 75.5923 37.8093C74.4083 37.8093 73.2083 37.8413 71.9923 37.9053C70.7763 37.9373 69.8643 37.9693 69.2563 38.0013V36.9933C70.4403 36.9933 71.2723 36.7533 71.7523 36.2733C72.2643 35.7933 72.5203 34.8813 72.5203 33.5373V18.4173C72.5203 16.9773 72.2803 15.9213 71.8003 15.2493C71.3523 14.5453 70.5043 14.1933 69.2563 14.1933V13.1853C70.2803 13.2813 71.2723 13.3293 72.2323 13.3293C73.4163 13.3293 74.5363 13.2813 75.5923 13.1853C76.6803 13.0573 77.6723 12.8813 78.5683 12.6573V17.4573C79.3683 15.6333 80.4723 14.3533 81.8803 13.6173C83.2883 12.8813 84.8243 12.5133 86.4883 12.5133Z" fill="#141414"/>
<path d="M110.219 12.5133C111.403 12.5133 112.491 12.6573 113.483 12.9453C114.507 13.2013 115.387 13.5693 116.123 14.0493C116.891 14.5293 117.499 15.1373 117.947 15.8733C118.395 16.5773 118.619 17.3613 118.619 18.2253C118.619 19.2813 118.299 20.1293 117.659 20.7693C117.019 21.4093 116.219 21.7293 115.259 21.7293C114.267 21.7293 113.451 21.4413 112.811 20.8653C112.203 20.2893 111.899 19.5213 111.899 18.5613C111.899 17.6333 112.171 16.8653 112.715 16.2573C113.259 15.6493 113.915 15.2493 114.683 15.0573C114.395 14.6413 113.947 14.3053 113.339 14.0493C112.731 13.7613 112.059 13.6173 111.323 13.6173C110.363 13.6173 109.499 13.8733 108.731 14.3853C107.963 14.8653 107.291 15.6013 106.715 16.5933C106.171 17.5533 105.739 18.7533 105.419 20.1933C105.131 21.6013 104.987 23.2333 104.987 25.0893C104.987 27.6813 105.291 29.7293 105.899 31.2333C106.539 32.7373 107.355 33.8093 108.347 34.4493C109.339 35.0573 110.395 35.3613 111.515 35.3613C112.187 35.3613 112.907 35.2333 113.675 34.9773C114.443 34.7213 115.195 34.2893 115.931 33.6813C116.699 33.0733 117.387 32.2093 117.995 31.0893L118.907 31.4253C118.555 32.5453 117.979 33.6653 117.179 34.7853C116.411 35.9053 115.403 36.8333 114.155 37.5693C112.907 38.3053 111.387 38.6733 109.595 38.6733C107.547 38.6733 105.691 38.2093 104.027 37.2813C102.363 36.3213 101.035 34.8813 100.043 32.9613C99.0834 31.0413 98.6034 28.6573 98.6034 25.8093C98.6034 22.9933 99.0994 20.6093 100.091 18.6573C101.083 16.6733 102.459 15.1533 104.219 14.0973C106.011 13.0413 108.011 12.5133 110.219 12.5133Z" fill="#141414"/>
<path d="M127.747 38.3373C126.371 38.3373 125.203 38.0813 124.243 37.5693C123.283 37.0253 122.563 36.3053 122.083 35.4093C121.603 34.4813 121.363 33.4573 121.363 32.3373C121.363 30.9613 121.683 29.8413 122.323 28.9773C122.963 28.0813 123.779 27.3773 124.771 26.8653C125.795 26.3213 126.867 25.8733 127.987 25.5213C129.107 25.1373 130.163 24.7853 131.155 24.4653C132.147 24.1133 132.963 23.7133 133.603 23.2653C134.243 22.8173 134.563 22.2253 134.563 21.4893V17.9853C134.563 16.9613 134.403 16.1293 134.083 15.4893C133.795 14.8173 133.347 14.3213 132.739 14.0013C132.163 13.6493 131.427 13.4733 130.531 13.4733C129.859 13.4733 129.155 13.5693 128.419 13.7613C127.683 13.9533 127.075 14.3213 126.595 14.8653C127.427 15.0893 128.067 15.5053 128.515 16.1133C128.995 16.7213 129.235 17.4573 129.235 18.3213C129.235 19.3133 128.899 20.0973 128.227 20.6733C127.587 21.2173 126.771 21.4893 125.779 21.4893C124.723 21.4893 123.923 21.1533 123.379 20.4813C122.835 19.8093 122.563 19.0253 122.563 18.1293C122.563 17.2333 122.787 16.4973 123.235 15.9213C123.683 15.3133 124.307 14.7693 125.107 14.2893C125.907 13.7453 126.931 13.3133 128.179 12.9933C129.427 12.6733 130.787 12.5133 132.259 12.5133C133.667 12.5133 134.915 12.6733 136.003 12.9933C137.091 13.2813 138.019 13.8093 138.787 14.5773C139.555 15.3133 140.051 16.2253 140.275 17.3133C140.499 18.4013 140.611 19.7293 140.611 21.2973V34.4493C140.611 35.2493 140.707 35.8253 140.899 36.1773C141.091 36.4973 141.395 36.6573 141.811 36.6573C142.131 36.6573 142.435 36.5773 142.723 36.4173C143.011 36.2573 143.331 36.0333 143.683 35.7453L144.211 36.5613C143.507 37.1053 142.771 37.5373 142.003 37.8573C141.235 38.1773 140.307 38.3373 139.219 38.3373C138.099 38.3373 137.203 38.1773 136.531 37.8573C135.891 37.5373 135.411 37.0733 135.091 36.4653C134.803 35.8573 134.643 35.1373 134.611 34.3053C133.843 35.5853 132.899 36.5773 131.779 37.2813C130.659 37.9853 129.315 38.3373 127.747 38.3373ZM130.627 35.6493C131.395 35.6493 132.099 35.4413 132.739 35.0253C133.411 34.6093 134.019 33.9853 134.563 33.1533V23.4573C134.243 23.9373 133.779 24.3693 133.171 24.7533C132.595 25.1373 131.971 25.5213 131.299 25.9053C130.627 26.2893 129.987 26.7373 129.379 27.2493C128.803 27.7293 128.307 28.3373 127.891 29.0733C127.507 29.7773 127.315 30.6893 127.315 31.8093C127.315 33.0573 127.619 34.0173 128.227 34.6893C128.835 35.3293 129.635 35.6493 130.627 35.6493Z" fill="#141414"/>
<path d="M167.595 3.44131C169.387 3.44131 170.763 3.63331 171.723 4.01731C172.683 4.40131 173.515 4.81731 174.219 5.26531C174.603 5.48931 174.907 5.66531 175.131 5.79331C175.387 5.88931 175.627 5.93731 175.851 5.93731C176.171 5.93731 176.395 5.76131 176.523 5.40931C176.683 5.05731 176.811 4.52931 176.907 3.82531H178.011C177.979 4.43331 177.931 5.13731 177.867 5.93731C177.835 6.73731 177.803 7.80931 177.771 9.15331C177.771 10.4653 177.771 12.2093 177.771 14.3853H176.667C176.571 12.7533 176.203 11.1853 175.563 9.68131C174.955 8.17731 174.075 6.94531 172.923 5.98531C171.803 4.99331 170.363 4.49731 168.603 4.49731C167.035 4.49731 165.723 4.96131 164.667 5.88931C163.643 6.81731 163.131 8.06531 163.131 9.63331C163.131 10.9773 163.467 12.1133 164.139 13.0413C164.811 13.9373 165.755 14.8173 166.971 15.6813C168.219 16.5133 169.691 17.4733 171.387 18.5613C172.955 19.5853 174.363 20.6093 175.611 21.6333C176.859 22.6253 177.835 23.7293 178.539 24.9453C179.275 26.1613 179.643 27.6493 179.643 29.4093C179.643 31.4893 179.131 33.2173 178.107 34.5933C177.083 35.9693 175.707 36.9933 173.979 37.6653C172.251 38.3373 170.363 38.6733 168.315 38.6733C166.427 38.6733 164.923 38.4813 163.803 38.0973C162.715 37.7133 161.771 37.3133 160.971 36.8973C160.267 36.4493 159.723 36.2253 159.339 36.2253C159.019 36.2253 158.779 36.4013 158.619 36.7533C158.491 37.1053 158.379 37.6333 158.283 38.3373H157.179C157.243 37.6013 157.275 36.7373 157.275 35.7453C157.307 34.7533 157.323 33.4733 157.323 31.9053C157.355 30.3053 157.371 28.2893 157.371 25.8573H158.475C158.603 27.9053 158.955 29.8253 159.531 31.6173C160.139 33.3773 161.051 34.8013 162.267 35.8893C163.515 36.9773 165.163 37.5213 167.211 37.5213C168.331 37.5213 169.339 37.3293 170.235 36.9453C171.163 36.5293 171.899 35.9053 172.443 35.0733C172.987 34.2093 173.259 33.1213 173.259 31.8093C173.259 30.4973 172.955 29.3453 172.347 28.3533C171.739 27.3613 170.891 26.4333 169.803 25.5693C168.715 24.7053 167.435 23.8253 165.963 22.9293C164.459 21.9693 163.051 20.9933 161.739 20.0013C160.427 19.0093 159.371 17.8893 158.571 16.6413C157.803 15.3613 157.419 13.8253 157.419 12.0333C157.419 10.0493 157.899 8.43331 158.859 7.18531C159.819 5.90531 161.067 4.96131 162.603 4.35331C164.171 3.74531 165.835 3.44131 167.595 3.44131Z" fill="#141414"/>
<path d="M194.683 12.5133C196.891 12.5133 198.843 12.9613 200.539 13.8573C202.267 14.7213 203.627 16.1133 204.619 18.0333C205.643 19.9533 206.155 22.4813 206.155 25.6173C206.155 28.7533 205.643 31.2813 204.619 33.2013C203.627 35.1213 202.267 36.5133 200.539 37.3773C198.843 38.2413 196.891 38.6733 194.683 38.6733C192.475 38.6733 190.507 38.2413 188.779 37.3773C187.051 36.5133 185.691 35.1213 184.699 33.2013C183.707 31.2813 183.211 28.7533 183.211 25.6173C183.211 22.4813 183.707 19.9533 184.699 18.0333C185.691 16.1133 187.051 14.7213 188.779 13.8573C190.507 12.9613 192.475 12.5133 194.683 12.5133ZM194.683 13.4733C193.179 13.4733 191.947 14.4333 190.987 16.3533C190.059 18.2413 189.595 21.3293 189.595 25.6173C189.595 29.9053 190.059 32.9933 190.987 34.8813C191.947 36.7693 193.179 37.7133 194.683 37.7133C196.155 37.7133 197.371 36.7693 198.331 34.8813C199.291 32.9933 199.771 29.9053 199.771 25.6173C199.771 21.3293 199.291 18.2413 198.331 16.3533C197.371 14.4333 196.155 13.4733 194.683 13.4733Z" fill="#141414"/>
<path d="M231.96 12.6573V32.8173C231.96 34.2573 232.2 35.3293 232.68 36.0333C233.16 36.7053 234.008 37.0413 235.224 37.0413V38.0493C234.232 37.9533 233.24 37.9053 232.248 37.9053C231.064 37.9053 229.928 37.9533 228.84 38.0493C227.784 38.1453 226.808 38.3213 225.912 38.5773V33.7773C225.112 35.5373 224.008 36.8013 222.6 37.5693C221.224 38.3053 219.736 38.6733 218.136 38.6733C216.888 38.6733 215.832 38.4973 214.968 38.1453C214.136 37.8253 213.464 37.3773 212.952 36.8013C212.408 36.1933 212.024 35.3933 211.8 34.4013C211.576 33.4093 211.464 32.1293 211.464 30.5613V18.4173C211.464 16.9773 211.224 15.9213 210.744 15.2493C210.296 14.5453 209.448 14.1933 208.2 14.1933V13.1853C209.224 13.2813 210.216 13.3293 211.176 13.3293C212.36 13.3293 213.48 13.2813 214.536 13.1853C215.624 13.0573 216.616 12.8813 217.512 12.6573V32.2413C217.512 33.1053 217.576 33.8733 217.704 34.5453C217.864 35.2173 218.168 35.7613 218.616 36.1773C219.064 36.5613 219.736 36.7533 220.632 36.7533C221.624 36.7533 222.52 36.4653 223.32 35.8893C224.12 35.3133 224.744 34.5293 225.192 33.5373C225.672 32.5453 225.912 31.4253 225.912 30.1773V18.4173C225.912 16.9773 225.672 15.9213 225.192 15.2493C224.744 14.5453 223.896 14.1933 222.648 14.1933V13.1853C223.672 13.2813 224.664 13.3293 225.624 13.3293C226.808 13.3293 227.928 13.2813 228.984 13.1853C230.072 13.0573 231.064 12.8813 231.96 12.6573Z" fill="#141414"/>
<path d="M256.856 12.9933L244.232 37.2813H247.688C248.936 37.2813 250.072 37.0253 251.096 36.5133C252.152 35.9693 253.032 35.0893 253.736 33.8733C254.44 32.6573 254.856 31.0253 254.984 28.9773H256.04C256.04 31.2173 256.056 33.0733 256.088 34.5453C256.12 36.0173 256.168 37.2333 256.232 38.1933C254.792 38.1293 253.288 38.0813 251.72 38.0493C250.184 38.0173 248.648 38.0013 247.112 38.0013C245.48 38.0013 243.816 38.0173 242.12 38.0493C240.424 38.1133 238.792 38.1773 237.224 38.2413L249.848 13.9533H246.296C244.984 13.9533 243.8 14.2253 242.744 14.7693C241.72 15.2813 240.888 16.1453 240.248 17.3613C239.64 18.5453 239.256 20.1773 239.096 22.2573H238.04C238.04 19.9853 238.024 18.1293 237.992 16.6893C237.96 15.2173 237.912 14.0013 237.848 13.0413C239.288 13.1053 240.776 13.1533 242.312 13.1853C243.88 13.2173 245.432 13.2333 246.968 13.2333C248.6 13.2333 250.264 13.2173 251.96 13.1853C253.656 13.1213 255.288 13.0573 256.856 12.9933Z" fill="#141414"/>
<path d="M265.767 38.3373C264.391 38.3373 263.223 38.0813 262.263 37.5693C261.303 37.0253 260.583 36.3053 260.103 35.4093C259.623 34.4813 259.383 33.4573 259.383 32.3373C259.383 30.9613 259.703 29.8413 260.343 28.9773C260.983 28.0813 261.799 27.3773 262.791 26.8653C263.815 26.3213 264.887 25.8733 266.007 25.5213C267.127 25.1373 268.183 24.7853 269.175 24.4653C270.167 24.1133 270.983 23.7133 271.623 23.2653C272.263 22.8173 272.583 22.2253 272.583 21.4893V17.9853C272.583 16.9613 272.423 16.1293 272.103 15.4893C271.815 14.8173 271.367 14.3213 270.759 14.0013C270.183 13.6493 269.447 13.4733 268.551 13.4733C267.879 13.4733 267.175 13.5693 266.439 13.7613C265.703 13.9533 265.095 14.3213 264.615 14.8653C265.447 15.0893 266.087 15.5053 266.535 16.1133C267.015 16.7213 267.255 17.4573 267.255 18.3213C267.255 19.3133 266.919 20.0973 266.247 20.6733C265.607 21.2173 264.791 21.4893 263.799 21.4893C262.743 21.4893 261.943 21.1533 261.399 20.4813C260.855 19.8093 260.583 19.0253 260.583 18.1293C260.583 17.2333 260.807 16.4973 261.255 15.9213C261.703 15.3133 262.327 14.7693 263.127 14.2893C263.927 13.7453 264.951 13.3133 266.199 12.9933C267.447 12.6733 268.807 12.5133 270.279 12.5133C271.687 12.5133 272.935 12.6733 274.023 12.9933C275.111 13.2813 276.039 13.8093 276.807 14.5773C277.575 15.3133 278.071 16.2253 278.295 17.3133C278.519 18.4013 278.631 19.7293 278.631 21.2973V34.4493C278.631 35.2493 278.727 35.8253 278.919 36.1773C279.111 36.4973 279.415 36.6573 279.831 36.6573C280.151 36.6573 280.455 36.5773 280.743 36.4173C281.031 36.2573 281.351 36.0333 281.703 35.7453L282.231 36.5613C281.527 37.1053 280.791 37.5373 280.023 37.8573C279.255 38.1773 278.327 38.3373 277.239 38.3373C276.119 38.3373 275.223 38.1773 274.551 37.8573C273.911 37.5373 273.431 37.0733 273.111 36.4653C272.823 35.8573 272.663 35.1373 272.631 34.3053C271.863 35.5853 270.919 36.5773 269.799 37.2813C268.679 37.9853 267.335 38.3373 265.767 38.3373ZM268.647 35.6493C269.415 35.6493 270.119 35.4413 270.759 35.0253C271.431 34.6093 272.039 33.9853 272.583 33.1533V23.4573C272.263 23.9373 271.799 24.3693 271.191 24.7533C270.615 25.1373 269.991 25.5213 269.319 25.9053C268.647 26.2893 268.007 26.7373 267.399 27.2493C266.823 27.7293 266.327 28.3373 265.911 29.0733C265.527 29.7773 265.335 30.6893 265.335 31.8093C265.335 33.0573 265.639 34.0173 266.247 34.6893C266.855 35.3293 267.655 35.6493 268.647 35.6493Z" fill="#141414"/>
</svg>
