<svg width="130" height="30" viewBox="0 0 130 30" fill="none" xmlns="http://www.w3.org/2000/svg">
<path d="M0 2.44275C0.369444 2.46819 0.842332 2.49364 1.41866 2.51908C1.995 2.54453 2.57133 2.55725 3.14766 2.55725C3.87177 2.55725 4.55894 2.54453 5.20916 2.51908C5.85938 2.49364 6.31749 2.48092 6.58349 2.48092C8.32726 2.48092 9.62771 3.04071 10.4848 4.1603C11.3567 5.2799 11.7926 6.71756 11.7926 8.47328C11.7926 9.36387 11.6523 10.2545 11.3715 11.145C11.1055 12.0356 10.6695 12.8371 10.0636 13.5496C9.47254 14.2621 8.69671 14.7964 7.73615 15.1527V15.229C9.0366 15.4326 10.0637 15.8906 10.8173 16.6031C11.5858 17.2901 12.1325 18.117 12.4576 19.084C12.7828 20.0254 12.9453 21.0178 12.9453 22.0611C12.9453 23.6132 12.7089 24.9491 12.236 26.0687C11.7779 27.1628 11.1129 28.0025 10.241 28.5878C9.3691 29.173 8.31988 29.4656 7.09332 29.4656C6.76821 29.4656 6.27316 29.4529 5.60816 29.4275C4.94316 29.3766 4.13777 29.3511 3.19199 29.3511C2.58611 29.3511 1.995 29.3639 1.41866 29.3893C0.842332 29.3893 0.369444 29.4148 0 29.4656V28.7023C0.487666 28.6514 0.849721 28.5496 1.08616 28.3969C1.33739 28.2443 1.49994 27.9389 1.57383 27.4809C1.6625 27.0229 1.70683 26.3359 1.70683 25.4198V6.48855C1.70683 5.54707 1.6625 4.86005 1.57383 4.42748C1.49994 3.96947 1.33739 3.66412 1.08616 3.51145C0.849721 3.33333 0.487666 3.23155 0 3.20611V2.44275ZM6.20666 3.20611C5.60077 3.20611 5.20177 3.42239 5.00966 3.85496C4.83233 4.28753 4.74366 5.16539 4.74366 6.48855V25.4198C4.74366 26.3104 4.78799 26.9847 4.87666 27.4427C4.96533 27.9008 5.12049 28.2061 5.34216 28.3588C5.56382 28.5115 5.88893 28.5878 6.31749 28.5878C7.52927 28.5878 8.40115 28.0153 8.93315 26.8702C9.47993 25.6997 9.75332 24.0458 9.75332 21.9084C9.75332 19.9491 9.45776 18.4351 8.86665 17.3664C8.29032 16.2977 7.32977 15.7634 5.98499 15.7634H3.96783C3.96783 15.7634 3.96783 15.6616 3.96783 15.458C3.96783 15.229 3.96783 15.1145 3.96783 15.1145H5.87416C6.62782 15.1145 7.21154 14.8346 7.62532 14.2748C8.0391 13.6896 8.31988 12.9262 8.46765 11.9847C8.61543 11.0178 8.68932 9.98728 8.68932 8.89313C8.68932 7.01018 8.49721 5.59796 8.11299 4.65649C7.72877 3.68957 7.09332 3.20611 6.20666 3.20611Z" fill="#FAFAFA"/>
<path d="M16.7434 0C17.2754 0 17.7114 0.254453 18.0513 0.763358C18.3911 1.27226 18.5611 1.94656 18.5611 2.78626C18.5611 3.62595 18.3911 4.30025 18.0513 4.80916C17.7114 5.31806 17.2754 5.57252 16.7434 5.57252C16.2114 5.57252 15.7755 5.31806 15.4356 4.80916C15.0957 4.30025 14.9258 3.62595 14.9258 2.78626C14.9258 1.94656 15.0957 1.27226 15.4356 0.763358C15.7755 0.254453 16.2114 0 16.7434 0ZM18.2951 9.31298V25.916C18.2951 26.9847 18.4059 27.7099 18.6276 28.0916C18.864 28.4733 19.2556 28.6641 19.8024 28.6641V29.4656C19.5364 29.4402 19.13 29.4148 18.5833 29.3893C18.0365 29.3384 17.4823 29.313 16.9208 29.313C16.374 29.313 15.8198 29.3384 15.2583 29.3893C14.6967 29.4148 14.2755 29.4402 13.9948 29.4656V28.6641C14.5415 28.6641 14.9258 28.4733 15.1474 28.0916C15.3839 27.7099 15.5021 26.9847 15.5021 25.916V13.9313C15.5021 12.7608 15.3913 11.9084 15.1696 11.374C14.9627 10.8142 14.5711 10.5344 13.9948 10.5344V9.73282C14.4677 9.80916 14.9258 9.84733 15.3691 9.84733C15.9159 9.84733 16.4331 9.80916 16.9208 9.73282C17.4232 9.63104 17.8813 9.49109 18.2951 9.31298Z" fill="#FAFAFA"/>
<path d="M23.6509 29.7328C23.0155 29.7328 22.4761 29.5293 22.0328 29.1221C21.5894 28.6896 21.2569 28.117 21.0353 27.4046C20.8136 26.6667 20.7028 25.8524 20.7028 24.9618C20.7028 23.8677 20.8505 22.9771 21.1461 22.2901C21.4417 21.5776 21.8185 21.0178 22.2766 20.6107C22.7495 20.1781 23.2445 19.8219 23.7618 19.542C24.279 19.2366 24.7666 18.9567 25.2248 18.7023C25.6829 18.4224 26.0597 18.1043 26.3553 17.7481C26.6508 17.3919 26.7986 16.9211 26.7986 16.3359V13.5496C26.7986 12.7354 26.7247 12.0738 26.5769 11.5649C26.4439 11.0305 26.237 10.6361 25.9563 10.3817C25.6903 10.1018 25.3504 9.96183 24.9366 9.96183C24.6263 9.96183 24.3011 10.0382 23.9613 10.1908C23.6214 10.3435 23.3406 10.6361 23.1189 11.0687C23.5032 11.2468 23.7987 11.5776 24.0056 12.0611C24.2273 12.5445 24.3381 13.1298 24.3381 13.8168C24.3381 14.6056 24.1829 15.229 23.8726 15.687C23.577 16.1196 23.2002 16.3359 22.7421 16.3359C22.2544 16.3359 21.885 16.0687 21.6338 15.5343C21.3825 15 21.2569 14.3766 21.2569 13.6641C21.2569 12.9517 21.3604 12.3664 21.5673 11.9084C21.7742 11.4249 22.0623 10.9924 22.4318 10.6107C22.8012 10.1781 23.2741 9.8346 23.8504 9.58015C24.4268 9.3257 25.0548 9.19847 25.7346 9.19847C26.3848 9.19847 26.9611 9.3257 27.4636 9.58015C27.966 9.80916 28.3946 10.229 28.7493 10.8397C29.1039 11.4249 29.333 12.1501 29.4364 13.0153C29.5399 13.8804 29.5916 14.9364 29.5916 16.1832V26.6412C29.5916 27.2774 29.6359 27.7354 29.7246 28.0153C29.8133 28.2697 29.9536 28.3969 30.1458 28.3969C30.2935 28.3969 30.4339 28.3333 30.5669 28.2061C30.6999 28.0789 30.8477 27.9008 31.0102 27.6718L31.2541 28.3206C30.929 28.7532 30.5891 29.0967 30.2344 29.3511C29.8797 29.6056 29.4512 29.7328 28.9488 29.7328C28.4315 29.7328 28.0178 29.6056 27.7074 29.3511C27.4119 29.0967 27.1902 28.7277 27.0424 28.2443C26.9094 27.7608 26.8355 27.1883 26.8208 26.5267C26.4661 27.5445 26.0301 28.3333 25.5129 28.8931C24.9957 29.4529 24.375 29.7328 23.6509 29.7328ZM24.9809 27.5954C25.3356 27.5954 25.6607 27.43 25.9563 27.0992C26.2666 26.7684 26.5474 26.2723 26.7986 25.6107V17.9008C26.6508 18.2824 26.4365 18.626 26.1558 18.9313C25.8898 19.2366 25.6016 19.542 25.2913 19.8473C24.9809 20.1527 24.6854 20.5089 24.4046 20.916C24.1386 21.2977 23.9095 21.7812 23.7174 22.3664C23.5401 22.9262 23.4514 23.6514 23.4514 24.542C23.4514 25.5344 23.5918 26.2977 23.8726 26.8321C24.1534 27.341 24.5228 27.5954 24.9809 27.5954Z" fill="#FAFAFA"/>
<path d="M39.6052 9.19847C40.2259 9.19847 40.7209 9.33842 41.0904 9.61832C41.4746 9.89822 41.7849 10.2545 42.0213 10.687C42.2873 11.1705 42.4721 11.7939 42.5755 12.5573C42.6937 13.3206 42.7528 14.3511 42.7528 15.6489V25.916C42.7528 26.9847 42.8637 27.7099 43.0853 28.0916C43.3218 28.4733 43.7134 28.6641 44.2602 28.6641V29.4656C43.9942 29.4402 43.5804 29.4148 43.0188 29.3893C42.4721 29.3384 41.9401 29.313 41.4229 29.313C40.8761 29.313 40.3441 29.3384 39.8269 29.3893C39.3096 29.4148 38.9254 29.4402 38.6742 29.4656V28.6641C39.1471 28.6641 39.4796 28.4733 39.6717 28.0916C39.8638 27.7099 39.9599 26.9847 39.9599 25.916V14.3511C39.9599 13.6641 39.9229 13.0534 39.849 12.5191C39.7751 11.9593 39.6274 11.5267 39.4057 11.2214C39.184 10.8906 38.8663 10.7252 38.4525 10.7252C37.9649 10.7252 37.5289 10.9542 37.1447 11.4122C36.7752 11.8702 36.4797 12.5064 36.258 13.3206C36.0511 14.1094 35.9477 15 35.9477 15.9924V25.916C35.9477 26.9847 36.0437 27.7099 36.2359 28.0916C36.428 28.4733 36.7605 28.6641 37.2334 28.6641V29.4656C36.9821 29.4402 36.6053 29.4148 36.1029 29.3893C35.6004 29.3384 35.0906 29.313 34.5734 29.313C34.0266 29.313 33.4724 29.3384 32.9109 29.3893C32.3493 29.4148 31.9281 29.4402 31.6474 29.4656V28.6641C32.1941 28.6641 32.5784 28.4733 32.8 28.0916C33.0365 27.7099 33.1547 26.9847 33.1547 25.916V13.8931C33.1547 12.7481 33.0439 11.9084 32.8222 11.374C32.6153 10.8142 32.2237 10.5344 31.6474 10.5344V9.73282C32.1203 9.80916 32.5784 9.84733 33.0217 9.84733C33.5685 9.84733 34.0857 9.80916 34.5734 9.73282C35.0758 9.63104 35.5339 9.49109 35.9477 9.31298V13.1298C36.3171 11.6794 36.827 10.6616 37.4772 10.0763C38.1274 9.49109 38.8367 9.19847 39.6052 9.19847Z" fill="#FAFAFA"/>
<path d="M50.5643 9.19847C51.1111 9.19847 51.6136 9.31298 52.0717 9.54198C52.5446 9.74555 52.9509 10.0382 53.2908 10.4198C53.6455 10.8015 53.9263 11.285 54.1332 11.8702C54.3401 12.43 54.4435 13.0534 54.4435 13.7405C54.4435 14.5802 54.2957 15.2545 54.0002 15.7634C53.7046 16.2723 53.3352 16.5267 52.8918 16.5267C52.4337 16.5267 52.0569 16.2977 51.7613 15.8397C51.4806 15.3817 51.3402 14.771 51.3402 14.0076C51.3402 13.2697 51.4658 12.659 51.717 12.1756C51.9682 11.6921 52.2712 11.374 52.6258 11.2214C52.4928 10.8906 52.2859 10.6234 52.0052 10.4198C51.7244 10.1908 51.4141 10.0763 51.0742 10.0763C50.6308 10.0763 50.2318 10.2799 49.8772 10.687C49.5225 11.0687 49.2122 11.6539 48.9462 12.4427C48.6949 13.2061 48.4954 14.1603 48.3477 15.3053C48.2147 16.4249 48.1482 17.7226 48.1482 19.1985C48.1482 21.2595 48.2886 22.888 48.5693 24.084C48.8649 25.2799 49.2417 26.1323 49.6998 26.6412C50.1579 27.1247 50.6456 27.3664 51.1628 27.3664C51.4732 27.3664 51.8057 27.2646 52.1603 27.0611C52.515 26.8575 52.8623 26.514 53.2022 26.0305C53.5568 25.5471 53.8745 24.8601 54.1553 23.9695L54.5765 24.2366C54.4139 25.1272 54.1479 26.0178 53.7785 26.9084C53.4238 27.799 52.9583 28.5369 52.382 29.1221C51.8057 29.7074 51.1037 30 50.2762 30C49.3304 30 48.4733 29.631 47.7048 28.8931C46.9364 28.1298 46.3231 26.9847 45.865 25.458C45.4217 23.9313 45.2 22.0356 45.2 19.771C45.2 17.5318 45.4291 15.6361 45.8872 14.084C46.3453 12.5064 46.9807 11.2977 47.7935 10.458C48.6211 9.61832 49.5447 9.19847 50.5643 9.19847Z" fill="#FAFAFA"/>
<path d="M58.6588 29.7328C58.0233 29.7328 57.484 29.5293 57.0406 29.1221C56.5973 28.6896 56.2648 28.117 56.0431 27.4046C55.8215 26.6667 55.7106 25.8524 55.7106 24.9618C55.7106 23.8677 55.8584 22.9771 56.154 22.2901C56.4495 21.5776 56.8263 21.0178 57.2845 20.6107C57.7573 20.1781 58.2524 19.8219 58.7696 19.542C59.2868 19.2366 59.7745 18.9567 60.2326 18.7023C60.6907 18.4224 61.0676 18.1043 61.3631 17.7481C61.6587 17.3919 61.8064 16.9211 61.8064 16.3359V13.5496C61.8064 12.7354 61.7326 12.0738 61.5848 11.5649C61.4518 11.0305 61.2449 10.6361 60.9641 10.3817C60.6981 10.1018 60.3582 9.96183 59.9445 9.96183C59.6341 9.96183 59.309 10.0382 58.9691 10.1908C58.6292 10.3435 58.3485 10.6361 58.1268 11.0687C58.511 11.2468 58.8066 11.5776 59.0135 12.0611C59.2351 12.5445 59.346 13.1298 59.346 13.8168C59.346 14.6056 59.1908 15.229 58.8805 15.687C58.5849 16.1196 58.2081 16.3359 57.75 16.3359C57.2623 16.3359 56.8928 16.0687 56.6416 15.5343C56.3904 15 56.2648 14.3766 56.2648 13.6641C56.2648 12.9517 56.3682 12.3664 56.5751 11.9084C56.782 11.4249 57.0702 10.9924 57.4396 10.6107C57.8091 10.1781 58.282 9.8346 58.8583 9.58015C59.4346 9.3257 60.0627 9.19847 60.7425 9.19847C61.3927 9.19847 61.969 9.3257 62.4714 9.58015C62.9739 9.80916 63.4024 10.229 63.7571 10.8397C64.1118 11.4249 64.3408 12.1501 64.4443 13.0153C64.5477 13.8804 64.5994 14.9364 64.5994 16.1832V26.6412C64.5994 27.2774 64.6438 27.7354 64.7324 28.0153C64.8211 28.2697 64.9615 28.3969 65.1536 28.3969C65.3014 28.3969 65.4418 28.3333 65.5748 28.2061C65.7078 28.0789 65.8556 27.9008 66.0181 27.6718L66.2619 28.3206C65.9368 28.7532 65.5969 29.0967 65.2423 29.3511C64.8876 29.6056 64.4591 29.7328 63.9566 29.7328C63.4394 29.7328 63.0256 29.6056 62.7153 29.3511C62.4197 29.0967 62.1981 28.7277 62.0503 28.2443C61.9173 27.7608 61.8434 27.1883 61.8286 26.5267C61.474 27.5445 61.038 28.3333 60.5208 28.8931C60.0036 29.4529 59.3829 29.7328 58.6588 29.7328ZM59.9888 27.5954C60.3435 27.5954 60.6686 27.43 60.9641 27.0992C61.2745 26.7684 61.5552 26.2723 61.8064 25.6107V17.9008C61.6587 18.2824 61.4444 18.626 61.1636 18.9313C60.8976 19.2366 60.6095 19.542 60.2991 19.8473C59.9888 20.1527 59.6932 20.5089 59.4125 20.916C59.1465 21.2977 58.9174 21.7812 58.7253 22.3664C58.548 22.9262 58.4593 23.6514 58.4593 24.542C58.4593 25.5344 58.5997 26.2977 58.8805 26.8321C59.1612 27.341 59.5307 27.5954 59.9888 27.5954Z" fill="#FAFAFA"/>
<path d="M77.0607 1.98473C77.8883 1.98473 78.5237 2.1374 78.9671 2.44275C79.4104 2.74809 79.7946 3.07888 80.1197 3.43511C80.2971 3.61323 80.4374 3.75318 80.5409 3.85496C80.6591 3.9313 80.7699 3.96946 80.8734 3.96946C81.0212 3.96946 81.1246 3.82952 81.1837 3.54962C81.2576 3.26972 81.3167 2.84987 81.3611 2.29008H81.8709C81.8561 2.77354 81.8339 3.33333 81.8044 3.96946C81.7896 4.6056 81.7748 5.45802 81.7601 6.52672C81.7601 7.56997 81.7601 8.95674 81.7601 10.687H81.2502C81.2059 9.38931 81.0359 8.14249 80.7404 6.94656C80.4596 5.75064 80.0532 4.77099 79.5212 4.00763C79.004 3.21883 78.339 2.82443 77.5262 2.82443C76.8021 2.82443 76.1962 3.19338 75.7086 3.9313C75.2357 4.66921 74.9992 5.66158 74.9992 6.9084C74.9992 7.9771 75.1544 8.88041 75.4647 9.61832C75.7751 10.3308 76.211 11.0305 76.7726 11.7176C77.3489 12.3791 78.0287 13.1425 78.8119 14.0076C79.536 14.8219 80.1862 15.6361 80.7626 16.4504C81.3389 17.2392 81.7896 18.117 82.1147 19.084C82.4546 20.0509 82.6246 21.2341 82.6246 22.6336C82.6246 24.2875 82.3881 25.6616 81.9152 26.7557C81.4423 27.8499 80.8069 28.6641 80.0089 29.1985C79.2109 29.7328 78.339 30 77.3932 30C76.5213 30 75.8268 29.8473 75.3096 29.542C74.8071 29.2366 74.3712 28.9186 74.0017 28.5878C73.6766 28.2316 73.4254 28.0534 73.2481 28.0534C73.1003 28.0534 72.9895 28.1934 72.9156 28.4733C72.8565 28.7532 72.8047 29.173 72.7604 29.7328H72.2506C72.2801 29.1476 72.2949 28.4606 72.2949 27.6718C72.3097 26.8829 72.3171 25.8651 72.3171 24.6183C72.3318 23.3461 72.3392 21.743 72.3392 19.8092H72.8491C72.9082 21.4377 73.0707 22.9644 73.3367 24.3893C73.6175 25.7888 74.0387 26.9211 74.6002 27.7863C75.1766 28.6514 75.9376 29.084 76.8834 29.084C77.4006 29.084 77.8661 28.9313 78.2799 28.626C78.7084 28.2952 79.0483 27.799 79.2996 27.1374C79.5508 26.4504 79.6764 25.5852 79.6764 24.542C79.6764 23.4987 79.536 22.5827 79.2552 21.7939C78.9744 21.0051 78.5828 20.2672 78.0804 19.5802C77.578 18.8931 76.9868 18.1934 76.3071 17.4809C75.6125 16.7176 74.9623 15.9415 74.3564 15.1527C73.7505 14.3639 73.2628 13.4733 72.8934 12.4809C72.5387 11.4631 72.3614 10.2417 72.3614 8.81679C72.3614 7.23918 72.5831 5.9542 73.0264 4.96183C73.4697 3.94402 74.0461 3.19338 74.7554 2.70992C75.4795 2.22646 76.248 1.98473 77.0607 1.98473Z" fill="#FAFAFA"/>
<path d="M89.5702 9.19847C90.5898 9.19847 91.4913 9.55471 92.2745 10.2672C93.0725 10.9542 93.7005 12.0611 94.1586 13.5878C94.6315 15.1145 94.868 17.1247 94.868 19.6183C94.868 22.112 94.6315 24.1221 94.1586 25.6489C93.7005 27.1756 93.0725 28.2824 92.2745 28.9695C91.4913 29.6565 90.5898 30 89.5702 30C88.5505 30 87.6417 29.6565 86.8437 28.9695C86.0457 28.2824 85.4176 27.1756 84.9595 25.6489C84.5014 24.1221 84.2723 22.112 84.2723 19.6183C84.2723 17.1247 84.5014 15.1145 84.9595 13.5878C85.4176 12.0611 86.0457 10.9542 86.8437 10.2672C87.6417 9.55471 88.5505 9.19847 89.5702 9.19847ZM89.5702 9.96183C88.8756 9.96183 88.3067 10.7252 87.8633 12.2519C87.4348 13.7532 87.2205 16.2087 87.2205 19.6183C87.2205 23.028 87.4348 25.4835 87.8633 26.9847C88.3067 28.486 88.8756 29.2366 89.5702 29.2366C90.2499 29.2366 90.8115 28.486 91.2548 26.9847C91.6982 25.4835 91.9198 23.028 91.9198 19.6183C91.9198 16.2087 91.6982 13.7532 91.2548 12.2519C90.8115 10.7252 90.2499 9.96183 89.5702 9.96183Z" fill="#FAFAFA"/>
<path d="M106.785 9.31298V25.3435C106.785 26.4885 106.895 27.341 107.117 27.9008C107.339 28.4351 107.73 28.7023 108.292 28.7023V29.5038C107.834 29.4275 107.376 29.3893 106.918 29.3893C106.371 29.3893 105.846 29.4275 105.344 29.5038C104.856 29.5802 104.405 29.7201 103.992 29.9237V26.1069C103.622 27.5064 103.112 28.5114 102.462 29.1221C101.827 29.7074 101.14 30 100.401 30C99.8243 30 99.3366 29.8601 98.9376 29.5802C98.5534 29.3257 98.2431 28.9695 98.0066 28.5114C97.7554 28.028 97.5781 27.3919 97.4746 26.6031C97.3712 25.8142 97.3195 24.7964 97.3195 23.5496V13.8931C97.3195 12.7481 97.2086 11.9084 96.987 11.374C96.7801 10.8142 96.3885 10.5344 95.8121 10.5344V9.73282C96.285 9.80916 96.7431 9.84733 97.1865 9.84733C97.7332 9.84733 98.2505 9.80916 98.7381 9.73282C99.2406 9.63104 99.6987 9.49109 100.112 9.31298V24.8855C100.112 25.5725 100.142 26.1832 100.201 26.7176C100.275 27.2519 100.415 27.6845 100.622 28.0153C100.829 28.3206 101.14 28.4733 101.553 28.4733C102.011 28.4733 102.425 28.2443 102.795 27.7863C103.164 27.3282 103.452 26.7048 103.659 25.916C103.881 25.1272 103.992 24.2366 103.992 23.2443V13.8931C103.992 12.7481 103.881 11.9084 103.659 11.374C103.452 10.8142 103.061 10.5344 102.484 10.5344V9.73282C102.957 9.80916 103.415 9.84733 103.859 9.84733C104.405 9.84733 104.923 9.80916 105.41 9.73282C105.913 9.63104 106.371 9.49109 106.785 9.31298Z" fill="#FAFAFA"/>
<path d="M118.282 9.58015L112.452 28.8931H114.048C114.625 28.8931 115.149 28.6896 115.622 28.2824C116.11 27.8499 116.516 27.1501 116.841 26.1832C117.166 25.2163 117.358 23.9186 117.418 22.2901H117.905C117.905 24.0712 117.913 25.5471 117.927 26.7176C117.942 27.888 117.964 28.855 117.994 29.6183C117.329 29.5674 116.634 29.5293 115.91 29.5038C115.201 29.4784 114.492 29.4656 113.782 29.4656C113.029 29.4656 112.26 29.4784 111.477 29.5038C110.694 29.5547 109.94 29.6056 109.216 29.6565L115.046 10.3435H113.405C112.799 10.3435 112.253 10.5598 111.765 10.9924C111.292 11.3995 110.908 12.0865 110.612 13.0534C110.332 13.9949 110.154 15.2926 110.08 16.9466H109.593C109.593 15.1399 109.585 13.6641 109.571 12.5191C109.556 11.3486 109.534 10.3817 109.504 9.61832C110.169 9.66921 110.856 9.70738 111.566 9.73282C112.29 9.75827 113.006 9.77099 113.716 9.77099C114.469 9.77099 115.238 9.75827 116.021 9.73282C116.804 9.68193 117.558 9.63104 118.282 9.58015Z" fill="#FAFAFA"/>
<path d="M122.397 29.7328C121.761 29.7328 121.222 29.5293 120.779 29.1221C120.335 28.6896 120.003 28.117 119.781 27.4046C119.56 26.6667 119.449 25.8524 119.449 24.9618C119.449 23.8677 119.596 22.9771 119.892 22.2901C120.188 21.5776 120.564 21.0178 121.023 20.6107C121.495 20.1781 121.99 19.8219 122.508 19.542C123.025 19.2366 123.513 18.9567 123.971 18.7023C124.429 18.4224 124.806 18.1043 125.101 17.7481C125.397 17.3919 125.545 16.9211 125.545 16.3359V13.5496C125.545 12.7354 125.471 12.0738 125.323 11.5649C125.19 11.0305 124.983 10.6361 124.702 10.3817C124.436 10.1018 124.096 9.96183 123.683 9.96183C123.372 9.96183 123.047 10.0382 122.707 10.1908C122.367 10.3435 122.087 10.6361 121.865 11.0687C122.249 11.2468 122.545 11.5776 122.752 12.0611C122.973 12.5445 123.084 13.1298 123.084 13.8168C123.084 14.6056 122.929 15.229 122.619 15.687C122.323 16.1196 121.946 16.3359 121.488 16.3359C121 16.3359 120.631 16.0687 120.38 15.5343C120.128 15 120.003 14.3766 120.003 13.6641C120.003 12.9517 120.106 12.3664 120.313 11.9084C120.52 11.4249 120.808 10.9924 121.178 10.6107C121.547 10.1781 122.02 9.8346 122.596 9.58015C123.173 9.3257 123.801 9.19847 124.481 9.19847C125.131 9.19847 125.707 9.3257 126.21 9.58015C126.712 9.80916 127.141 10.229 127.495 10.8397C127.85 11.4249 128.079 12.1501 128.182 13.0153C128.286 13.8804 128.338 14.9364 128.338 16.1832V26.6412C128.338 27.2774 128.382 27.7354 128.471 28.0153C128.559 28.2697 128.7 28.3969 128.892 28.3969C129.039 28.3969 129.18 28.3333 129.313 28.2061C129.446 28.0789 129.594 27.9008 129.756 27.6718L130 28.3206C129.675 28.7532 129.335 29.0967 128.98 29.3511C128.626 29.6056 128.197 29.7328 127.695 29.7328C127.177 29.7328 126.764 29.6056 126.453 29.3511C126.158 29.0967 125.936 28.7277 125.788 28.2443C125.655 27.7608 125.581 27.1883 125.567 26.5267C125.212 27.5445 124.776 28.3333 124.259 28.8931C123.742 29.4529 123.121 29.7328 122.397 29.7328ZM123.727 27.5954C124.082 27.5954 124.407 27.43 124.702 27.0992C125.013 26.7684 125.293 26.2723 125.545 25.6107V17.9008C125.397 18.2824 125.182 18.626 124.902 18.9313C124.636 19.2366 124.348 19.542 124.037 19.8473C123.727 20.1527 123.431 20.5089 123.151 20.916C122.885 21.2977 122.655 21.7812 122.463 22.3664C122.286 22.9262 122.197 23.6514 122.197 24.542C122.197 25.5344 122.338 26.2977 122.619 26.8321C122.899 27.341 123.269 27.5954 123.727 27.5954Z" fill="#FAFAFA"/>
</svg>
